<svg id="visual" viewBox="0 0 900 600" width="900" height="600" xmlns="http://www.w3.org/2000/svg" xmlns:xlink="http://www.w3.org/1999/xlink" version="1.1"><rect x="0" y="0" width="900" height="600" fill="#ffffff"></rect><path d="M0 277L37.5 297.3C75 317.7 150 358.3 225 350C300 341.7 375 284.3 450 272.2C525 260 600 293 675 309.5C750 326 825 326 862.5 326L900 326L900 601L862.5 601C825 601 750 601 675 601C600 601 525 601 450 601C375 601 300 601 225 601C150 601 75 601 37.5 601L0 601Z" fill="#0d6eff" stroke-linecap="round" stroke-linejoin="miter"></path></svg>