<svg id="visual" viewBox="0 0 900 600" width="900" height="600" xmlns="http://www.w3.org/2000/svg" xmlns:xlink="http://www.w3.org/1999/xlink" version="1.1"><rect x="0" y="0" width="900" height="600" fill="#ffffff"></rect><path d="M423 600L439.8 580C456.7 560 490.3 520 531.8 480C573.3 440 622.7 400 595.8 360C569 320 466 280 460.2 240C454.3 200 545.7 160 564.7 120C583.7 80 530.3 40 503.7 20L477 0L900 0L900 20C900 40 900 80 900 120C900 160 900 200 900 240C900 280 900 320 900 360C900 400 900 440 900 480C900 520 900 560 900 580L900 600Z" fill="#0d6eff" stroke-linecap="round" stroke-linejoin="miter"></path></svg>